# xmcd
#
# Track frame offsets: 
#        150
#        21459
#        41700
#        63896
#        82336
#        95912
#        98792
#        121427
#        141246
#        154990
#        173680
#
# Disc length: 2572 seconds
#
# Revision: 3
# Processed by: cddbd v1.5.2PL0 Copyright (c) Steve Scherf et al.
# Submitted via: ExactAudioCopy v1.3
#
DISCID=9d0a0a0b
DTITLE=茶太 - ぼくらのうた
DYEAR=2002
DGENRE=Vocal
TTITLE0=茶太 - メトロポリタン美術館
TTITLE1=島村秀行 - 島村秀行 - およげ！たいやきくん
TTITLE2=茶太 - さわやか3組
TTITLE3=島村秀行 - 北風小僧の寒太郎
TTITLE4=shiho - shiho - しあわせのうた
TTITLE5=bermei - bermei - interlude
TTITLE6=霜月はるか - 霜月はるか - 翼をください
TTITLE7=霜月はるか - 霜月はるか - まっくら森の歌
TTITLE8=茶太 - ヒポポタマス
TTITLE9=茶太 - にんげんっていいな
TTITLE10=片霧烈火 - 片霧烈火 - ぼくらのうた
EXTD=
EXTT0=
EXTT1=
EXTT2=
EXTT3=
EXTT4=
EXTT5=
EXTT6=
EXTT7=
EXTT8=
EXTT9=
EXTT10=
PLAYORDER=
